<svg width="67" height="67" viewBox="0 0 67 67" fill="none" xmlns="http://www.w3.org/2000/svg">
<path fill-rule="evenodd" clip-rule="evenodd" d="M4.88157 4.88157C-3.97364e-07 9.7631 0 17.6198 0 33.3333C0 49.0467 -3.97364e-07 56.9037 4.88157 61.785C9.7631 66.6667 17.6198 66.6667 33.3333 66.6667C49.0467 66.6667 56.9037 66.6667 61.785 61.785C66.6667 56.9037 66.6667 49.0467 66.6667 33.3333C66.6667 17.6198 66.6667 9.7631 61.785 4.88157C56.9037 -3.97364e-07 49.0467 0 33.3333 0C17.6198 0 9.7631 -3.97364e-07 4.88157 4.88157ZM38.2937 14.8197C39.6273 15.177 40.4187 16.5479 40.0613 17.8816L31.434 50.079C31.0767 51.4127 29.7057 52.2043 28.372 51.847C27.0383 51.4893 26.247 50.1187 26.6044 48.785L35.2317 16.5875C35.589 15.2538 36.96 14.4623 38.2937 14.8197ZM43.2323 21.5656C44.2087 20.5893 45.7913 20.5893 46.7677 21.5656L47.4623 22.26C49.58 24.3777 51.346 26.1436 52.5593 27.734C53.8403 29.4127 54.7387 31.1863 54.7387 33.3333C54.7387 35.4803 53.8403 37.254 52.5593 38.9327C51.346 40.523 49.58 42.289 47.4623 44.4067L46.7677 45.101C45.7913 46.0773 44.2087 46.0773 43.2323 45.101C42.256 44.1247 42.256 42.542 43.2323 41.5657L43.804 40.9937C46.0763 38.7213 47.599 37.1913 48.5843 35.8997C49.5257 34.666 49.7387 33.9477 49.7387 33.3333C49.7387 32.719 49.5257 32.0007 48.5843 30.767C47.599 29.4753 46.0763 27.9453 43.804 25.673L43.2323 25.1011C42.256 24.1248 42.256 22.5419 43.2323 21.5656ZM19.8995 21.5656C20.8758 20.5893 22.4587 20.5893 23.4351 21.5656C24.4114 22.5419 24.4114 24.1248 23.4351 25.1011L22.8631 25.673C20.591 27.9453 19.0684 29.4753 18.0829 30.767C17.1415 32.0007 16.9287 32.719 16.9287 33.3333C16.9287 33.9477 17.1415 34.666 18.0829 35.8997C19.0684 37.1913 20.591 38.7213 22.8631 40.9937L23.4351 41.5657C24.4114 42.542 24.4114 44.1247 23.4351 45.101C22.4587 46.0773 20.8758 46.0773 19.8995 45.101L19.205 44.4067C17.0872 42.289 15.3213 40.523 14.1078 38.9327C12.827 37.254 11.9287 35.4803 11.9287 33.3333C11.9287 31.1863 12.827 29.4127 14.1078 27.734C15.3213 26.1436 17.0872 24.3777 19.205 22.26L19.8995 21.5656Z" fill="#6366F1"/>
</svg>
