<svg width="80" height="80" viewBox="0 0 80 80" fill="none" xmlns="http://www.w3.org/2000/svg">
<path fill-rule="evenodd" clip-rule="evenodd" d="M20.9031 7.0382C18.2042 7.3937 16.7749 8.04397 15.7569 9.0413C14.739 10.0387 14.0753 11.4389 13.7124 14.0832C13.3389 16.8051 13.333 20.4127 13.333 25.5854V54.1472C14.6286 53.2602 16.0888 52.5852 17.663 52.1722C19.4235 51.7098 21.4765 51.7105 24.4851 51.7115H66.6663V25.5854C66.6663 20.4127 66.6603 16.8051 66.287 14.0831C65.924 11.4389 65.2603 10.0387 64.2423 9.0413C63.2243 8.04397 61.7953 7.3937 59.0963 7.0382C56.318 6.67224 52.6357 6.6665 47.356 6.6665H32.6433C27.3637 6.6665 23.6814 6.67224 20.9031 7.0382ZM22.5284 21.9818C22.5284 20.4892 23.7635 19.2791 25.287 19.2791H54.7123C56.236 19.2791 57.471 20.4892 57.471 21.9818C57.471 23.4745 56.236 24.6845 54.7123 24.6845H25.287C23.7635 24.6845 22.5284 23.4745 22.5284 21.9818ZM25.287 31.8917C23.7635 31.8917 22.5284 33.1018 22.5284 34.5945C22.5284 36.0872 23.7635 37.2972 25.287 37.2972H43.6777C45.2013 37.2972 46.4363 36.0872 46.4363 34.5945C46.4363 33.1018 45.2013 31.8917 43.6777 31.8917H25.287Z" fill="#E54C63"/>
<path d="M28.9654 57.1172H24.9113C21.3131 57.1172 20.0551 57.1405 19.0912 57.3935C16.4454 58.0882 14.3362 60.0149 13.4316 62.5195C13.4876 63.7942 13.5752 64.9155 13.7126 65.9169C14.0755 68.5612 14.7392 69.9615 15.7572 70.9589C16.7752 71.9562 18.2044 72.6062 20.9033 72.9619C23.6816 73.3279 27.3639 73.3335 32.6436 73.3335H47.3562C52.6359 73.3335 56.3182 73.3279 59.0966 72.9619C61.7956 72.6062 63.2246 71.9562 64.2426 70.9589C65.2606 69.9615 65.9242 68.5612 66.2872 65.9169C66.5919 63.6962 66.6519 60.8859 66.6636 57.1172H43.6779V67.1392C43.6779 68.1325 43.6779 68.6289 43.3292 68.8295C42.9802 69.0302 42.5032 68.8082 41.5489 68.3642L36.9796 66.2379C36.6569 66.0875 36.4952 66.0125 36.3219 66.0125C36.1482 66.0125 35.9866 66.0875 35.6639 66.2379L31.0946 68.3642C30.1403 68.8082 29.6632 69.0302 29.3143 68.8295C28.9654 68.6289 28.9654 68.1325 28.9654 67.1392V57.1172Z" fill="#E54C63"/>
</svg>
