<svg width="80" height="80" viewBox="0 0 80 80" fill="none" xmlns="http://www.w3.org/2000/svg">
<path d="M26.6663 79.9997C34.0263 79.9997 39.9997 74.0263 39.9997 66.6663V53.333H26.6663C19.3063 53.333 13.333 59.3063 13.333 66.6663C13.333 74.0263 19.3063 79.9997 26.6663 79.9997Z" fill="#0ACF83"/>
<path d="M13.333 40.0003C13.333 32.6403 19.3063 26.667 26.6663 26.667H39.9997V53.3337H26.6663C19.3063 53.3337 13.333 47.3603 13.333 40.0003Z" fill="#A259FF"/>
<path d="M13.333 13.3333C13.333 5.97333 19.3063 0 26.6663 0H39.9997V26.6667H26.6663C19.3063 26.6667 13.333 20.6933 13.333 13.3333Z" fill="#F24E1E"/>
<path d="M40 0H53.3333C60.6933 0 66.6667 5.97333 66.6667 13.3333C66.6667 20.6933 60.6933 26.6667 53.3333 26.6667H40V0Z" fill="#FF7262"/>
<path d="M66.6667 40.0003C66.6667 47.3603 60.6933 53.3337 53.3333 53.3337C45.9733 53.3337 40 47.3603 40 40.0003C40 32.6403 45.9733 26.667 53.3333 26.667C60.6933 26.667 66.6667 32.6403 66.6667 40.0003Z" fill="#1ABCFE"/>
</svg>
