<svg width="80" height="80" viewBox="0 0 80 80" fill="none" xmlns="http://www.w3.org/2000/svg">
<path d="M28.3658 6.66653H51.6329C52.4079 6.66633 53.0019 6.6662 53.5212 6.717C57.2139 7.07823 60.2365 9.29843 61.5182 12.2891H18.4805C19.7622 9.29843 22.7847 7.07823 26.4774 6.717C26.9968 6.6662 27.5909 6.66633 28.3658 6.66653Z" fill="#00C6C6"/>
<path d="M21.0347 15.7437C16.3992 15.7437 12.5984 18.5428 11.3299 22.2563C11.3035 22.3337 11.2781 22.4115 11.2539 22.4897C12.5811 22.0878 13.9623 21.8252 15.3605 21.646C18.9618 21.1843 23.5129 21.1845 28.7997 21.1848H29.1945H51.7733C57.0599 21.1845 61.6113 21.1843 65.2126 21.646C66.6106 21.8252 67.9919 22.0878 69.3189 22.4897C69.2949 22.4115 69.2696 22.3337 69.2429 22.2563C67.9746 18.5428 64.1736 15.7437 59.5383 15.7437H21.0347Z" fill="#00C6C6"/>
<path fill-rule="evenodd" clip-rule="evenodd" d="M28.9083 25.1401H51.0923C62.3417 25.1401 67.9663 25.1401 71.126 28.4296C74.2853 31.719 73.542 36.801 72.0553 46.9653L70.6453 56.6037C69.4793 64.5747 68.8967 68.56 65.906 70.9467C62.9153 73.3333 58.5043 73.3333 49.6823 73.3333H30.3182C21.4964 73.3333 17.0854 73.3333 14.0948 70.9467C11.1042 68.56 10.5212 64.5747 9.35526 56.6037L7.94536 46.9653C6.45859 36.801 5.71523 31.719 8.87473 28.4296C12.0342 25.1401 17.6589 25.1401 28.9083 25.1401ZM26.667 60.0003C26.667 58.6197 27.9107 57.5003 29.4448 57.5003H50.556C52.09 57.5003 53.3337 58.6197 53.3337 60.0003C53.3337 61.3813 52.09 62.5007 50.556 62.5007H29.4448C27.9107 62.5007 26.667 61.3813 26.667 60.0003Z" fill="#00C6C6"/>
</svg>
