<svg width="40" height="40" viewBox="0 0 40 40" fill="none" xmlns="http://www.w3.org/2000/svg">
<path d="M6.40755 6.40755C4.53082 8.28427 4.53082 11.327 6.40755 13.2038L9.05378 15.85C9.07365 15.827 9.09448 15.8046 9.1163 15.7828L15.783 9.11612C15.8047 9.09437 15.8271 9.07358 15.85 9.05377L13.2038 6.40755C11.3271 4.53082 8.28427 4.53082 6.40755 6.40755Z" fill="#C42026"/>
<path d="M17.6127 10.8169C17.5929 10.8398 17.5721 10.8622 17.5502 10.8839L10.8836 17.5505C10.8618 17.5724 10.8394 17.5932 10.8164 17.613L26.7957 33.5925C28.6726 35.4692 31.7152 35.4692 33.5921 33.5925C35.4687 31.7157 35.4687 28.673 33.5921 26.7962L17.6127 10.8169Z" fill="#C42026"/>
<path d="M26.833 3.84524C27.1013 3.16259 28.0638 3.16259 28.332 3.84524L29.0493 5.67071C29.1313 5.87912 29.2956 6.04411 29.5033 6.12631L31.322 6.84626C32.0021 7.11549 32.0021 8.08159 31.322 8.35082L29.5033 9.07079C29.2956 9.15299 29.1313 9.31796 29.0493 9.52637L28.3321 11.3518C28.0638 12.0345 27.1013 12.0345 26.833 11.3519L26.1158 9.52637C26.0338 9.31796 25.8695 9.15299 25.6618 9.07079L23.8431 8.35082C23.163 8.08159 23.163 7.11549 23.8431 6.84626L25.6618 6.12631C25.8695 6.04411 26.0338 5.87912 26.1158 5.67071L26.833 3.84524Z" fill="#C42026"/>
<path d="M33.2783 15.2158C33.5465 14.5332 34.5091 14.5332 34.7773 15.2158L35.0388 15.8814C35.1208 16.0898 35.2852 16.2548 35.4928 16.337L36.1558 16.5995C36.836 16.8687 36.836 17.8349 36.1558 18.1041L35.4928 18.3666C35.2852 18.4488 35.1208 18.6137 35.0388 18.8221L34.7773 19.4878C34.5091 20.1704 33.5465 20.1704 33.2783 19.4878L33.0168 18.8221C32.9348 18.6137 32.7705 18.4488 32.5628 18.3666L31.8996 18.1041C31.2196 17.8349 31.2196 16.8687 31.8996 16.5995L32.5628 16.337C32.7705 16.2548 32.9348 16.0898 33.0168 15.8814L33.2783 15.2158Z" fill="#C42026"/>
<path d="M8.55566 25.512C8.82389 24.8293 9.78644 24.8293 10.0547 25.512L10.3162 26.1775C10.3981 26.386 10.5625 26.551 10.7701 26.6332L11.4332 26.8957C12.1134 27.1648 12.1134 28.131 11.4332 28.4002L10.7701 28.6627C10.5625 28.7448 10.3981 28.9098 10.3162 29.1183L10.0547 29.7838C9.78644 30.4665 8.82389 30.4665 8.55566 29.7838L8.29413 29.1183C8.21223 28.9098 8.04786 28.7448 7.84021 28.6627L7.17709 28.4002C6.49696 28.131 6.49696 27.1648 7.17709 26.8957L7.84021 26.6332C8.04786 26.551 8.21223 26.386 8.29413 26.1775L8.55566 25.512Z" fill="#C42026"/>
</svg>
