<svg width="40" height="40" viewBox="0 0 40 40" fill="none" xmlns="http://www.w3.org/2000/svg">
<path fill-rule="evenodd" clip-rule="evenodd" d="M4.62381 20.8025C5.11754 21.2968 5.11706 22.0978 4.62271 22.5915L4.36331 22.8506C4.14171 23.072 4.14171 23.4301 4.36331 23.6515C4.58574 23.8736 4.94701 23.8736 5.16944 23.6515L8.02299 20.8013C8.51733 20.3076 9.31831 20.3081 9.81206 20.8025C10.3058 21.2968 10.3053 22.0978 9.81096 22.5915L6.95743 25.4415C5.74716 26.6503 3.78559 26.6503 2.57533 25.4415C1.36422 24.232 1.36421 22.2701 2.57533 21.0605L2.83474 20.8013C3.32908 20.3076 4.13006 20.3081 4.62381 20.8025ZM12.8114 22.4828C13.3054 22.977 13.3054 23.778 12.8114 24.272L9.24073 27.8426C8.74669 28.3366 7.94571 28.3366 7.45166 27.8426C6.95763 27.3485 6.95763 26.5476 7.45166 26.0535L11.0223 22.4828C11.5164 21.9888 12.3174 21.9888 12.8114 22.4828ZM17.4933 27.159C17.9873 27.6531 17.9873 28.4541 17.4933 28.9481L13.9471 32.4943C13.453 32.9883 12.652 32.9883 12.158 32.4943C11.664 32.0003 11.664 31.1993 12.158 30.7053L15.7043 27.159C16.1983 26.665 16.9993 26.665 17.4933 27.159ZM12.1623 27.8268C12.6508 28.3263 12.6419 29.1271 12.1424 29.6156L9.25879 32.4358C8.75929 32.9243 7.95834 32.9153 7.46984 32.4158C6.98133 31.9163 6.99024 31.1155 7.48974 30.627L10.3734 27.8068C10.8729 27.3183 11.6738 27.3273 12.1623 27.8268ZM19.1355 30.1968C19.6293 30.6911 19.6288 31.4921 19.1345 31.986L16.2809 34.836C16.0593 35.0573 16.0593 35.4155 16.2809 35.6368C16.5033 35.859 16.8647 35.859 17.087 35.6368L17.3465 35.3776C17.8408 34.884 18.6418 34.8845 19.1355 35.3788C19.6293 35.8731 19.6288 36.6741 19.1345 37.1678L18.875 37.427C17.6648 38.6356 15.7032 38.6356 14.4929 37.427C13.2818 36.2173 13.2818 34.2555 14.4929 33.0458L17.3465 30.1958C17.8408 29.702 18.6418 29.7025 19.1355 30.1968Z" fill="#C42026"/>
<path d="M18.0774 9.01502L14.4313 12.6502C13.7611 13.3184 13.1463 13.9313 12.6608 14.4854C12.349 14.8412 12.0374 15.2306 11.7735 15.6609L11.7379 15.6255C11.6705 15.5583 11.6367 15.5246 11.6029 15.4918C10.9691 14.8768 10.2237 14.3879 9.40635 14.0512C9.36268 14.0332 9.31835 14.0157 9.2297 13.9805L8.68682 13.7654C7.95137 13.474 7.75537 12.5272 8.31498 11.9693C9.92105 10.3681 11.8494 8.44567 12.78 8.05955C13.6007 7.71902 14.4873 7.60572 15.3424 7.73209C16.1259 7.84787 16.8671 8.25032 18.0774 9.01502Z" fill="#C42026"/>
<path d="M24.3037 28.1552C24.5975 28.4535 24.7927 28.664 24.969 28.8892C25.2019 29.1862 25.41 29.5017 25.5914 29.8324C25.7955 30.2047 25.9542 30.6024 26.2712 31.3979C26.5294 32.0454 27.3869 32.2165 27.885 31.7199L28.0055 31.5997C29.6115 29.9985 31.5399 28.076 31.927 27.1482C32.2687 26.33 32.3824 25.446 32.2555 24.5935C32.1394 23.8125 31.7359 23.0737 30.969 21.8672L27.3107 25.5145C26.6254 26.1979 25.9969 26.8245 25.4285 27.3154C25.0879 27.6095 24.7152 27.9035 24.3037 28.1552Z" fill="#C42026"/>
<path fill-rule="evenodd" clip-rule="evenodd" d="M25.8368 23.9456L34.2194 15.5881C35.4268 14.3845 36.0304 13.7826 36.3483 13.0174C36.6663 12.2521 36.6663 11.401 36.6663 9.69887V8.88568C36.6663 6.26824 36.6663 4.95952 35.8506 4.14639C35.0351 3.33325 33.7224 3.33325 31.0971 3.33325H30.2814C28.5741 3.33325 27.7204 3.33325 26.9529 3.65024C26.1853 3.96724 25.5818 4.56904 24.3744 5.77265L15.9916 14.1302C14.581 15.5366 13.7063 16.4087 13.3676 17.2509C13.2605 17.5171 13.207 17.7803 13.207 18.0564C13.207 19.2063 14.1352 20.1318 15.9916 21.9826L16.2411 22.2313L19.1638 19.2651C19.5806 18.8421 20.2614 18.8369 20.6844 19.2538C21.1074 19.6706 21.1126 20.3514 20.6958 20.7744L17.7641 23.7498L17.9606 23.9456C19.8171 25.7964 20.7453 26.7218 21.8986 26.7218C22.1536 26.7218 22.3974 26.6766 22.6426 26.5863C23.5076 26.2678 24.3904 25.3874 25.8368 23.9456ZM29.7749 14.1308C28.6874 15.215 26.9243 15.215 25.8369 14.1308C24.7494 13.0466 24.7494 11.2888 25.8369 10.2047C26.9243 9.12047 28.6874 9.12047 29.7749 10.2047C30.8624 11.2888 30.8624 13.0466 29.7749 14.1308Z" fill="#C42026"/>
</svg>
