<svg width="40" height="40" viewBox="0 0 40 40" fill="none" xmlns="http://www.w3.org/2000/svg">
<path fill-rule="evenodd" clip-rule="evenodd" d="M4.65926 8.40806C5.2156 4.66401 8.20553 1.66675 11.9987 1.66675C14.2694 1.66675 16.2765 2.76065 17.621 4.43381C18.0587 4.97835 17.9708 5.7737 17.425 6.21028C16.8793 6.64685 16.0821 6.55933 15.6445 6.01478C14.729 4.87548 13.4216 4.19421 11.9987 4.19421C9.75956 4.19421 7.74268 5.9311 7.2267 8.41676C7.47666 8.44843 7.71966 8.55463 7.91991 8.73698C8.43661 9.2075 8.47318 10.0068 8.0016 10.5223L6.76843 11.8703C6.52843 12.1326 6.18886 12.2821 5.83285 12.2821C5.47685 12.2821 5.13728 12.1326 4.89728 11.8703L3.66411 10.5223C3.19251 10.0068 3.22908 9.2075 3.74578 8.73698C4.00463 8.5013 4.33485 8.39283 4.65926 8.40806ZM18.5665 7.05868C18.9225 7.05868 19.262 7.20815 19.502 7.47048L20.7352 8.81846C21.2068 9.33398 21.1703 10.1333 20.6535 10.6038C20.3947 10.8395 20.0645 10.948 19.7402 10.9327C19.1838 14.6768 16.1938 17.6741 12.4007 17.6741C10.2887 17.6741 8.4022 16.7267 7.06751 15.2466C6.59965 14.7277 6.64198 13.9287 7.16206 13.4619C7.68215 12.9951 8.48303 13.0374 8.9509 13.5562C9.85263 14.5563 11.0751 15.1466 12.4007 15.1466C14.6398 15.1466 16.6567 13.4097 17.1727 10.924C16.9227 10.8923 16.6797 10.7861 16.4795 10.6038C15.9627 10.1333 15.9262 9.33398 16.3978 8.81846L17.631 7.47048C17.871 7.20815 18.2105 7.05868 18.5665 7.05868Z" fill="#C42026"/>
<path fill-rule="evenodd" clip-rule="evenodd" d="M34.9998 19.7804V26.5202C34.9998 32.8747 34.9998 36.0519 33.0211 38.026C31.0424 40 27.8579 40 21.4886 40C15.1195 40 11.9349 40 9.95619 38.026C7.97754 36.0519 7.97754 32.8747 7.97754 26.5202V23.6332C7.97754 23.1857 7.97754 22.962 8.01989 22.7769C8.16424 22.1459 8.65814 21.653 9.29062 21.509C9.47614 21.4669 9.70067 21.4669 10.1498 21.4669C12.8391 21.4669 14.1838 21.4669 15.2949 21.2144C19.0933 20.351 22.0593 17.3919 22.9244 13.6025C23.1776 12.4939 23.1776 11.1539 23.1776 8.47388C23.1776 8.0293 23.1776 7.807 23.2208 7.61996C23.3671 6.98756 23.8833 6.48295 24.5199 6.34981C24.7083 6.31045 24.9241 6.3148 25.3556 6.32353C29.2409 6.40211 31.4914 6.7484 33.0211 8.27455C34.9998 10.2486 34.9998 13.4258 34.9998 19.7804ZM16.422 33.6814C15.7224 33.6814 15.1553 34.247 15.1553 34.945C15.1553 35.643 15.7224 36.2087 16.422 36.2087H26.5553C27.2549 36.2087 27.8219 35.643 27.8219 34.945C27.8219 34.247 27.2549 33.6814 26.5553 33.6814H16.422Z" fill="#C42026"/>
</svg>
